<?xml version="1.0" encoding="UTF-8"?>
<svg width="1200pt" height="1200pt" version="1.1" viewBox="0 0 1200 1200" xmlns="http://www.w3.org/2000/svg">
 <path d="m523.95 689.1c5.3867 12.324 9.9766 26.262 12.113 42.227 3.4609 25.938 0.26172 56.387-16.863 92.352-0.10156 0.22656-0.21094 0.4375-0.32422 0.64844-16.363 36.977-23.711 64-21.312 82.176 0.023438 0.21094 0.0625 0.42578 0.085938 0.64844 0.16406-0.97656 0.35156-1.9375 0.5625-2.9258 3.5234-15.977 13.914-31.051 31.836-48.863 9.1992-9.1367 26.613-20.676 47.375-34.426 40.426-26.762 94.477-62.562 112.24-96.148 10.137-19.176 5.4258-38.949-29.238-57.289-15.539-8.2109-27.477-18.801-38.449-30-19.762 11.125-39.711 21.914-59.812 32.324-12.637 6.5391-25.371 12.977-38.211 19.277zm278.21-195.4c-477.32 353.85-1112.9 435.49-550.99 24.199-416.44 446.46 487.16 20.465 550.99-24.199zm361.55-210.35c-9.4766-16.398-28.461-24.301-59.5-18.352-20.375 3.8984-47.312 14.176-81.938 32.773l-76.211-37.387-70.164-34.426c-0.25-0.13672-0.5-0.27344-0.76172-0.39844-0.14844-0.074219-0.30078-0.14844-0.44922-0.22656-5.1875-2.4492-10.602-3.0742-15.488-2.0117-5.8359 1.2617-10.664 4.6641-13.75 10.012-0.32422 0.51172-0.61328 1.0625-0.88672 1.625-2.4141 5.1016-2.7266 10.836-1.1875 16.352 1.2266 4.3984 3.6875 8.75 7.1992 12.363l85.102 87.938c-14.387 10.074-28.113 20.262-40.586 30.164-13.312 10.551-25.387 20.914-35.539 30.574l-44.211-16.613c-0.64844-0.25-1.3242-0.47656-2.0234-0.63672l-9.3008-2.3008c-3.9375-0.97656-8.0859-1.0742-11.938-0.023437-5.0117 1.3516-9.2891 4.3008-12.164 9.1758-3.0742 5.2109-3.4141 10.426-1.9609 15.637 0.88672 3.1992 2.4141 5.9609 4.2266 8.5l39.227 55.023 27.977 61.352c1.3125 2.8633 2.9375 5.5742 5.2383 7.9141 2.0859 2.125 4.4609 3.7891 7.1875 4.8359 2.1875 0.83594 4.6133 1.2891 7.3125 1.25 5.6875-0.050782 10.363-2.2617 14.012-5.8867 2.8633-2.8359 4.8633-6.4883 5.9883-10.387h-0.011719l0.011719-0.0625 0.1875-0.67578 2.1641-7.5c0.32422-0.91406 0.57422-1.8633 0.73828-2.8516l7.75-46.773c13.551-3.9883 28.562-9.2617 44.273-15.477 14.625-5.7891 30.301-12.574 46.363-20.086l33.613 117.7c1.375 4.8008 3.9141 9.1016 7.125 12.375 1.4609 1.4883 3.0625 2.7734 4.7891 3.8359 1.7734 1.1016 3.6875 1.9492 5.6875 2.5391 1.3984 0.39844 2.8633 0.67578 4.3516 0.80078v-0.011719l0.125 0.011719h0.14844c6.7734 0.46094 12.664-2.0742 17.023-6.875 3.3984-3.75 5.5859-8.7617 6.0625-14.5v-0.0625l0.011718-0.17578h-0.011718l0.011718-0.125 5.3359-78.949 5.7266-84.688c33.363-20.648 55.711-38.836 69.289-54.551 20.652-23.914 23.301-44.328 13.824-60.738zm-440.06-113.25c45.102 3.8867 88.227 14.738 128.29 31.438-11.062 3.0391-20.289 10.074-26.148 20.062-0.69922 1.1484-1.3359 2.3359-1.9141 3.5625-4.7891 10.125-5.5508 21.523-2.5391 32.301 2.3125 8.2891 6.8125 15.938 12.801 22.125l66.699 68.926c-6.7383 5-13.398 10.113-19.961 15.324-8.9883 7.125-17.863 14.477-26.449 22.125l-30.914-11.613c-1.5234-0.58594-3.0859-1.0742-4.6758-1.4766l-9.3008-2.3008c-7.6758-1.8984-15.762-1.9766-23.426 0.085937-11 2.9766-20.102 9.8008-25.914 19.648-6.0859 10.324-7.5 21.898-4.3008 33.398 1.5859 5.6992 4.2109 10.863 7.6367 15.664l25.414 35.637c-10.238 7.1484-24.238 14.023-35.336 19.801-23.25 12.102-46.875 23.613-70.562 34.852-65.324 31-131.93 60.148-199.12 86.824-37.449 14.863-75.262 29-113.49 41.75-33.387 11.148-67.523 21.5-101.88 29.199-1.5391 0.33594-3.0859 0.6875-4.6484 1.0234-5.9883-28.613-9.1367-58.25-9.1367-88.637 0-92.926 29.387-178.99 79.375-249.4 8.5391 49.289 23.875 95.977 48.773 136.07 27.949 45.023 67.727 81.551 123.09 103.98 8.1875 3.3125 17.523-0.63672 20.852-8.8242 2.5391-6.2617 0.82422-13.188-3.7734-17.586-12.289-13.102-22.512-25.375-30.824-36.812-8.4492-11.637-14.789-22.227-19.137-31.801-4.4492-9.7891-8.5-20.613-7.9609-28.273 0.25-3.4609 2.9883-6.3125 10.488-7.375 7.6133-1.0859 15.738 0.10156 24.312 3.3867 9.5391 3.6484 19.5 9.7891 29.863 18.199 6.8516 5.5625 16.914 4.5234 22.477-2.3125 0.38672-0.47656 0.73828-0.94922 1.0508-1.4492 16.352-25.039 34.012-46.938 54.086-64.477 19.574-17.102 41.664-30.113 67.375-37.898 6.7734-2.0508 12.148-2.8359 16.449-3.4766 20.102-2.9492 27.613-4.0508 35.574-35.199 4.7617-18.648 3.6484-32.312-4.6758-45.199-7.3516-11.363-19.664-20.188-38.363-30.512-4.9766-2.75-0.89844-0.47656-2.6875-1.4609-9.5117-5.3125-13.602-7.5859-21.762-5.0508-6.8633 2.125-8.9141 5.3125-12.523 10.887-1.125 1.7383-2.625 4.0625-4.4141 6.3242-10.148 12.824-22.738 15.551-33.301 12.539-7.1133-2.0391-13.375-6.3984-17.523-11.926-3.6484-4.8516-5.5391-10.539-4.5625-16 1.6016-9 11.051-18.539 32.75-25.699 4.7617-1.5742 7.7266-2.3359 10.312-3.0117 8.75-2.2617 14.562-3.7734 26.602-11.773 33.051-21.949 64.711-44.023 64.812-44.102zm111.46 392.73c-3.6992 6.125-6.8242 12.887-9.3125 20.312-7.0391 21.012-8.8125 47.227-3.6133 78.676 1.1367 7.0234 6.7109 12.238 13.398 13.238v0.023438c96.449 14.664 108.2 44.887 102.65 81.375-1.6016 10.523-4.3008 21.477-7.0742 32.688-11.727 47.488-24.512 99.352 23.688 148.02-73.711 58.801-167.12 93.961-268.75 93.961-173.24 0-322.6-102.15-391.21-249.49 10.238-3.1875 19.062-6.0742 26-8.3984 59.125-19.773 117.46-43.648 174.19-70.312 4.2109 9.8125 7.7109 20.613 9.3008 32.488 2.7266 20.414 0 44.824-14.113 74.438-0.23828 0.5-0.44922 1.0117-0.63672 1.5234-18.75 42.414-26.977 74.914-23.762 99.211 3.8516 29.051 21.562 46.148 54.25 53.273 8.6367 1.8633 17.164-3.625 19.023-12.273 0.9375-4.3242 0.023437-8.6133-2.1992-12.062-6.7266-11.512-9.3516-20.414-7.5742-28.477 2.0508-9.3008 9.6641-19.637 23.199-33.086 6.8633-6.8242 23.113-17.586 42.488-30.414 43.336-28.699 101.27-67.062 122.88-107.93 18.887-35.727 13.125-70.988-42.637-100.48-9.125-4.8242-17.102-11.199-24.551-18.25 55.449-32.5 109.34-67.824 160.96-105.86l16.801 36.863c1.8125 3.9492 3.9766 7.5977 6.6133 10.934zm157.75-24.75c-20.977-10.336-42.051-16.5-61.875-18.352-4.7266-0.4375-9.375-0.63672-13.938-0.58594l3.1758-19.188c10.926-3.6016 21.738-7.6133 32.414-11.824 7.7891-3.0742 15.512-6.2891 23.199-9.625zm105.62-65.098c11.062 35.988 17.539 73.988 18.75 113.31-0.86328 0-2.0625-0.011719-3.5859 0-1.9609 0-4.4609 0.011719-7.4766 0.039063-6.3867-1.3359-12.602-2.8008-18.613-4.3984 2.6367-5.3984 4.2383-11.301 4.7383-17.375l1.7617-23.461-0.17578-0.011719zm18.535 145.24c-4.9375 117.69-57.039 223.18-137.89 298.07l-0.64844-0.64844c-36.664-36.289-26.012-79.398-16.273-118.85 3.0234-12.238 5.9609-24.164 7.6992-35.574 8-52.648-5-96.062-117.74-115.86-2.2891-20.938-0.71094-38.25 3.9258-52.074 1.7734-5.3008 4.0117-10.086 6.6641-14.363 2.125 0.30078 4.3125 0.4375 6.5391 0.41406 11.426-0.10156 21.875-4.5234 29.949-12.551 4.375-4.3516 7.7617-9.5742 10.086-15.262 5.9609-0.60156 12.238-0.60156 18.75 0.011718 22.375 2.1016 47.301 11.352 71.824 27.449 2.6484 1.7383 5.375 3.4375 8.1484 5.0859 1.9609 3.1641 4.2617 6.1133 6.875 8.7734 7.8359 8.0117 18.113 13.062 29.312 13.977l19.824 1.625c11.637 3.6367 24.062 6.8008 37.262 9.5117 1.0508 0.21094 2.1367 0.32422 3.25 0.32422 3.8242-0.023437 6.8359-0.039062 9.0391-0.050781 1.4883-0.023437 2.6133-0.023437 3.3984-0.007813zm-755.72-302.23 1.375 9.625 0.66406 4.6875c7.3008 50.926 21.762 99.074 46.738 139.29 10.461 16.852 22.801 32.336 37.289 46.086-1.2266-2.3984-2.375-4.75-3.4258-7.0742-6.1758-13.574-11.738-29.363-10.711-43.676 1.3125-18.512 11.312-33.012 37.898-36.801 13.188-1.875 26.602-0.0625 40.211 5.1367 8.125 3.1133 16.352 7.4609 24.664 13 15.273-21.664 31.812-40.949 50.387-57.176 23.012-20.102 48.949-35.387 79.148-44.539 8.8359-2.6758 15.637-3.6758 21.086-4.4766 4.7266-0.6875 6.4883-0.94922 9.1484-11.414 2.4375-9.5234 2.4258-15.637-0.42578-20.023-3.7617-5.8242-12.438-11.688-26.312-19.387-0.48828 0.64844-1.0234 1.3359-1.6016 2.0625-19.664 24.863-45.211 29.812-67.102 23.551-13.773-3.9375-26.039-12.562-34.301-23.562-8.7617-11.664-13.176-26.039-10.574-40.664 1.3242-7.4492 4.3984-14.824 9.5859-21.762 8.5859-11.461 22.949-21.676 44.699-28.863 4.5117-1.4883 8.6758-2.5625 12.312-3.5117 5.5625-1.4375 9.2617-2.3984 16.961-7.5117 10.762-7.1484 21.039-14.062 30.074-20.199-122.66 4.8047-232.19 60.777-307.79 147.2z" fill="#fff" fill-rule="evenodd"/>
</svg>
